<mxfile host="65bd71144e">
    <diagram id="fOf6TuDWCP2ZReuXKwfi" name="ページ1">
        <mxGraphModel dx="1270" dy="1139" grid="1" gridSize="10" guides="1" tooltips="1" connect="1" arrows="1" fold="1" page="1" pageScale="1" pageWidth="1169" pageHeight="827" math="0" shadow="0">
            <root>
                <mxCell id="0"/>
                <mxCell id="1" parent="0"/>
                <mxCell id="4" value="Euterpe" style="swimlane;whiteSpace=wrap;html=1;" parent="1" vertex="1">
                    <mxGeometry x="20" y="30" width="1130" height="730" as="geometry">
                        <mxRectangle x="80" y="130" width="90" height="30" as="alternateBounds"/>
                    </mxGeometry>
                </mxCell>
                <mxCell id="9" value="Aulos" style="swimlane;whiteSpace=wrap;html=1;" parent="4" vertex="1">
                    <mxGeometry x="20" y="320" width="990" height="370" as="geometry">
                        <mxRectangle x="20" y="340" width="70" height="30" as="alternateBounds"/>
                    </mxGeometry>
                </mxCell>
                <mxCell id="11" value="&lt;h1&gt;機能概要&lt;/h1&gt;&lt;p&gt;・音楽理論と音を体系的に扱うための最小単位を表現することを目標&lt;br&gt;・pythonでパフォーマンス良く使用するため、Rust pyo3 実装&lt;br&gt;・特色としては以下&lt;br&gt;　・概念オブジェクト(Note, PitchClass, Scale, ...)&lt;br&gt;　・具体オブジェクト(Track, ...)&lt;br&gt;　・概念オブジェクト(再生不可)と具体オブジェクト(再生可能)の相互変換&lt;br&gt;　・具体オブジェクトを基にした音声処理&lt;/p&gt;" style="text;html=1;strokeColor=none;fillColor=none;spacing=5;spacingTop=-20;whiteSpace=wrap;overflow=hidden;rounded=0;" parent="9" vertex="1">
                    <mxGeometry x="10" y="35" width="460" height="195" as="geometry"/>
                </mxCell>
                <mxCell id="16" value="PitchClass" style="html=1;" parent="9" vertex="1">
                    <mxGeometry x="500" y="130" width="110" height="50" as="geometry"/>
                </mxCell>
                <mxCell id="10" value="&lt;h1&gt;機能概要&lt;/h1&gt;&lt;p&gt;・本機能で音楽解析、音楽作成、エフェクタ作成まで行うことを目標&lt;br&gt;・特色として、通常のDAWよりも音楽理論にフォーカスした作業を行えること&lt;br&gt;・AulosAPIを使用するためのPythonUIという位置付け&lt;br&gt;&lt;/p&gt;" style="text;html=1;strokeColor=none;fillColor=none;spacing=5;spacingTop=-20;whiteSpace=wrap;overflow=hidden;rounded=0;" parent="4" vertex="1">
                    <mxGeometry x="10" y="30" width="660" height="110" as="geometry"/>
                </mxCell>
            </root>
        </mxGraphModel>
    </diagram>
</mxfile>